# xmcd
#
# Track frame offsets: 
#        150
#        42624
#        64460
#        80257
#        106054
#        130078
#        157526
#        179301
#
# Disc length: 2641 seconds
#
# Revision: 0
# Processed by: cddbd v1.5.2PL0 Copyright (c) Steve Scherf et al.
# Submitted via: ExactAudioCopyFreeDBPlugin 1.0
#
DISCID=5d0a4f08
DTITLE=Ebo - I'd Rather Be By Myself
DYEAR=1986
DGENRE=R&B
TTITLE0=I'd Rather Be By Myself
TTITLE1=Somebody
TTITLE2=For The First Time
TTITLE3=Party Night
TTITLE4=Count The Days
TTITLE5=Always And Forever
TTITLE6=Prime Time
TTITLE7=Can You Forgive Me
EXTD=
EXTT0=
EXTT1=
EXTT2=
EXTT3=
EXTT4=
EXTT5=
EXTT6=
EXTT7=
PLAYORDER=
